<?xml version="1.0" standalone="no"?>
<!DOCTYPE svg PUBLIC "-//W3C//DTD SVG 20010904//EN"
        "http://www.w3.org/TR/2001/REC-SVG-20010904/DTD/svg10.dtd">
<svg version="1.0" xmlns="http://www.w3.org/2000/svg"
     width="319.000000pt" height="291.000000pt" viewBox="0 0 319.000000 291.000000"
     preserveAspectRatio="xMidYMid meet">

    <g transform="translate(0.000000,291.000000) scale(0.100000,-0.100000)"
       fill="#000000" stroke="none">
        <path d="M924 2825 c-19 -29 -16 -157 4 -177 7 -7 44 -14 82 -16 l70 -4 -2
-282 -3 -281 -315 -5 c-271 -4 -319 -7 -346 -22 -36 -20 -90 -79 -107 -117 -9
-19 -12 -234 -13 -831 0 -443 -1 -811 -2 -817 -1 -10 -30 -13 -106 -13 -89 0
-107 -3 -129 -20 -30 -24 -47 -75 -47 -142 l0 -48 1575 0 1575 0 0 48 c0 67
-17 118 -47 142 -22 17 -40 20 -128 20 -85 0 -104 3 -109 16 -3 9 -6 378 -6
820 0 882 3 831 -59 897 -56 61 -58 62 -401 67 l-315 5 -3 281 -2 282 70 4
c38 2 75 9 82 16 20 20 23 148 4 177 l-16 25 -645 0 -645 0 -16 -25z m1257
-1238 c69 -33 132 -99 167 -175 l27 -57 0 -545 0 -545 -790 0 -790 0 0 545 0
545 26 56 c30 64 85 129 136 160 76 47 86 48 643 46 l525 -2 56 -28z"/>
        <path d="M1612 1307 c-67 -73 -131 -210 -147 -314 -4 -24 -12 -43 -19 -43 -7
0 -38 23 -70 52 -66 59 -65 60 -98 -47 -18 -57 -23 -94 -23 -195 0 -117 2
-129 28 -182 100 -203 358 -256 522 -107 32 30 65 73 82 107 25 51 28 67 27
157 0 159 -34 249 -151 402 -36 48 -81 111 -98 140 l-32 52 -21 -22z"/>
    </g>
</svg>
